<svg xmlns="http://www.w3.org/2000/svg" width="569.385" height="624.167" viewBox="130 0 569.385 624.167">
  <g id="Banner_Graphic" data-name="Banner Graphic" transform="translate(136.912 -171.598)">
    <rect id="Rectangle_34" data-name="Rectangle 34" width="131" height="113" transform="translate(-77.289 566.23) rotate(21)" fill="rgba(136,207,224,0.29)"/>
    <rect id="Rectangle_39" data-name="Rectangle 39" width="92" height="94" transform="matrix(0.766, -0.643, 0.643, 0.766, -98.52, 230.734)" fill="rgba(136,207,224,0.29)"/>
    <rect id="Rectangle_40" data-name="Rectangle 40" width="139" height="122" transform="translate(-136.912 354.697) rotate(-58)" fill="rgba(136,207,224,0.29)"/>
    <rect id="Rectangle_41" data-name="Rectangle 41" width="89" height="92" transform="translate(-83.139 418.759) rotate(-84)" fill="rgba(136,207,224,0.29)"/>
    <rect id="Rectangle_42" data-name="Rectangle 42" width="89" height="92" transform="translate(-70.51 447.629) rotate(-63)" fill="rgba(136,207,224,0.29)"/>
    <rect id="Rectangle_43" data-name="Rectangle 43" width="89" height="92" transform="matrix(-0.438, -0.899, 0.899, -0.438, -36.609, 560.589)" fill="rgba(136,207,224,0.29)"/>
    <rect id="Rectangle_44" data-name="Rectangle 44" width="92" height="78" transform="matrix(0.309, -0.951, 0.951, 0.309, -50.749, 597.712)" fill="rgba(136,207,224,0.29)"/>
    <rect id="Rectangle_45" data-name="Rectangle 45" width="80" height="98" transform="matrix(-0.052, -0.999, 0.999, -0.052, -64.275, 701.165)" fill="rgba(136,207,224,0.29)"/>
    <rect id="Rectangle_46" data-name="Rectangle 46" width="72" height="124" transform="translate(-65.098 795.765) rotate(-122)" fill="rgba(136,207,224,0.29)"/>
    <path id="Path_27" data-name="Path 27" d="M105,116h0Z" transform="translate(334.1 603.696) rotate(-122)" fill="rgba(136,207,224,0.29)"/>
    <path id="Path_28" data-name="Path 28" d="M87,116h0Z" transform="matrix(-0.052, -0.999, 0.999, -0.052, 288.802, 649.047)" fill="rgba(136,207,224,0.29)"/>
  </g>
</svg>
