<?xml version="1.0" standalone="no"?>
<!DOCTYPE svg PUBLIC "-//W3C//DTD SVG 20010904//EN"
 "http://www.w3.org/TR/2001/REC-SVG-20010904/DTD/svg10.dtd">
<svg version="1.0" xmlns="http://www.w3.org/2000/svg"
 width="519.000000pt" height="230.000000pt" viewBox="0 0 519.000000 230.000000"
 preserveAspectRatio="xMidYMid meet">

<g transform="translate(0.000000,230.000000) scale(0.100000,-0.100000)"
fill="#000000" stroke="none">
<path d="M2414 1761 c-11 -5 -59 -69 -106 -143 -46 -73 -121 -190 -166 -260
l-82 -128 63 0 62 1 125 201 c69 110 130 201 135 201 10 0 135 -190 135 -205
0 -4 -58 -9 -129 -10 l-129 -3 25 -42 25 -43 138 0 138 0 31 -50 31 -50 60 0
c46 0 59 3 54 13 -58 93 -318 495 -327 504 -17 17 -59 24 -83 14z"/>
<path d="M717 1746 c-50 -18 -103 -60 -132 -104 -97 -149 -18 -354 155 -402
19 -5 119 -10 221 -10 228 0 270 10 339 79 134 134 93 352 -80 430 -41 19 -65
21 -255 20 -150 0 -221 -4 -248 -13z m463 -98 c151 -77 121 -284 -47 -318 -83
-18 -349 -9 -388 12 -133 72 -134 249 -1 309 35 16 67 19 216 19 163 0 179 -2
220 -22z"/>
<path d="M1430 1495 l0 -265 55 0 55 0 0 221 0 220 185 -3 c169 -3 186 -5 205
-23 34 -34 36 -77 5 -113 l-26 -32 -162 -2 -161 -3 151 -132 152 -133 76 0 76
0 -97 82 -97 82 54 11 c30 6 69 21 86 33 38 27 73 96 73 143 -1 68 -52 145
-113 168 -17 7 -124 11 -273 11 l-244 0 0 -265z"/>
<path d="M2955 1747 c-114 -44 -175 -134 -175 -256 0 -73 34 -146 91 -194 65
-57 115 -67 315 -67 l173 0 25 43 26 42 -203 5 c-224 6 -244 11 -292 74 -67
88 -34 210 70 257 33 16 66 19 202 19 l162 0 31 45 31 45 -213 -1 c-137 0
-224 -5 -243 -12z"/>
<path d="M3460 1517 c0 -203 3 -246 16 -265 15 -22 18 -22 260 -22 l244 0 30
48 29 47 -239 3 -240 2 0 215 0 215 -50 0 -50 0 0 -243z"/>
<path d="M4195 1747 c-114 -44 -175 -131 -175 -251 0 -79 19 -126 76 -183 72
-73 113 -83 330 -83 l172 0 25 43 25 42 -201 5 c-221 6 -241 11 -291 70 -50
60 -48 60 189 60 l214 0 26 37 c14 21 25 41 25 45 0 5 -108 8 -240 8 -270 0
-268 -1 -205 68 47 53 86 62 269 62 l156 0 25 40 c14 22 25 42 25 45 0 11
-415 3 -445 -8z"/>
<path d="M625 955 c-18 -18 -25 -35 -25 -65 0 -34 -4 -42 -25 -50 -14 -5 -25
-16 -25 -25 0 -9 9 -15 25 -15 l25 0 0 -130 0 -130 25 0 25 0 0 130 0 130 35
0 c28 0 35 4 35 19 0 15 -8 21 -32 23 -29 3 -33 7 -36 34 -3 35 18 64 49 64
12 0 19 7 19 20 0 31 -63 28 -95 -5z"/>
<path d="M1514 956 c-42 -18 -64 -52 -64 -97 0 -53 29 -83 117 -119 110 -44
136 -81 93 -128 -29 -31 -84 -38 -153 -20 l-58 15 3 -26 c3 -22 11 -28 53 -39
91 -24 190 2 214 55 6 13 11 41 11 63 0 52 -37 88 -129 124 -44 17 -78 38 -88
53 -15 23 -15 26 4 51 18 24 26 27 84 27 35 0 74 -4 87 -8 19 -7 22 -5 22 16
0 19 -8 28 -31 36 -43 15 -127 13 -165 -3z"/>
<path d="M1819 889 c-9 -27 -21 -44 -36 -50 -31 -12 -30 -39 2 -39 l25 0 0
-110 c0 -129 11 -150 80 -150 36 0 40 3 40 24 0 19 -4 23 -19 19 -38 -10 -51
22 -51 123 l0 94 35 0 c28 0 35 4 35 19 0 15 -8 21 -32 23 -31 3 -33 6 -36 46
-4 55 -27 56 -43 1z"/>
<path d="M2565 889 c-6 -33 -12 -43 -36 -51 -35 -12 -39 -38 -5 -38 23 0 24
-2 28 -112 4 -101 7 -113 27 -130 32 -25 101 -25 101 0 0 12 -11 21 -32 27
l-33 10 -3 103 -3 102 31 0 c23 0 30 4 30 20 0 16 -7 20 -30 20 -29 0 -30 2
-30 45 0 38 -3 45 -19 45 -15 0 -21 -10 -26 -41z"/>
<path d="M814 831 c-85 -52 -86 -213 -1 -275 19 -14 43 -20 81 -20 88 0 133
43 143 137 7 73 -20 137 -70 160 -47 22 -114 22 -153 -2z m137 -50 c26 -26 29
-36 29 -91 0 -77 -26 -110 -89 -110 -46 0 -76 30 -87 84 -20 111 76 187 147
117z"/>
<path d="M1215 842 c-11 -2 -30 -13 -41 -24 -21 -19 -21 -19 -27 1 -3 12 -12
21 -21 21 -14 0 -16 -19 -16 -150 l0 -150 25 0 c25 0 25 0 25 99 0 111 15 144
70 156 20 4 30 13 30 25 0 20 -16 28 -45 22z"/>
<path d="M2033 840 c-25 -10 -34 -56 -9 -47 7 3 34 8 59 12 58 9 87 -6 87 -45
0 -29 -1 -30 -50 -30 -93 0 -140 -34 -140 -100 0 -45 16 -70 57 -86 42 -18 88
-11 121 19 l23 21 6 -22 c3 -13 13 -22 25 -22 19 0 19 6 16 130 -4 160 -11
172 -110 177 -35 1 -73 -2 -85 -7z m147 -176 c0 -35 -50 -84 -86 -84 -32 0
-64 25 -64 52 0 36 36 58 95 58 52 0 55 -1 55 -26z"/>
<path d="M2412 838 c-18 -5 -35 -15 -39 -23 -8 -22 -23 -18 -23 5 0 13 -7 20
-20 20 -19 0 -20 -7 -20 -150 l0 -150 25 0 c25 0 25 1 25 90 0 108 14 143 65
161 22 8 35 20 35 30 0 24 -9 28 -48 17z"/>
<path d="M3170 833 c-14 -9 -28 -21 -31 -26 -3 -5 -9 1 -12 12 -3 12 -12 21
-21 21 -14 0 -16 -25 -16 -210 l0 -210 25 0 c24 0 25 2 25 71 0 64 2 70 18 64
61 -26 89 -28 128 -9 50 25 74 71 74 146 0 101 -46 158 -127 158 -21 0 -50 -8
-63 -17z m97 -38 c48 -34 55 -145 12 -191 -27 -28 -83 -32 -117 -8 -19 13 -22
24 -22 89 0 70 2 75 31 99 35 29 65 33 96 11z"/>
<path d="M3455 838 c-31 -17 -45 -39 -45 -73 0 -42 31 -69 103 -90 68 -20 89
-46 60 -77 -15 -17 -27 -19 -73 -15 -30 2 -63 8 -72 12 -14 6 -18 2 -18 -18 0
-21 7 -26 46 -36 99 -25 184 15 184 85 0 44 -26 69 -89 88 -95 28 -114 51 -66
82 24 16 75 15 119 -2 12 -5 16 0 16 19 0 17 -7 26 -22 31 -37 9 -121 6 -143
-6z"/>
<path d="M2740 720 c0 -118 0 -120 29 -152 25 -28 36 -33 74 -33 31 0 55 7 76
23 37 27 41 27 41 2 0 -13 7 -20 20 -20 19 0 20 7 20 150 l0 150 -25 0 c-25 0
-25 -1 -25 -92 0 -75 -4 -99 -20 -125 -32 -53 -111 -57 -130 -7 -6 14 -10 70
-10 125 0 99 0 99 -25 99 l-25 0 0 -120z"/>
</g>
</svg>
