<svg xmlns="http://www.w3.org/2000/svg" width="300" height="400" viewBox="220 -150 450 900">
  <g id="Banner_Graphic" data-name="Banner Graphic" transform="translate(84.526 -190.598)">
    <g id="Component_10_2" data-name="Component 10 – 2" transform="translate(-84.526 190.598)">
      <rect id="Rectangle_25" data-name="Rectangle 25" width="300" height="300" transform="translate(263.561 600.625)" fill="rgba(136,207,224,0.3)"/>
      <rect id="Rectangle_26" data-name="Rectangle 26" width="300" height="300" transform="translate(349.699 650.625)" fill="rgba(136,207,224,0.3)"/>
      <rect id="Rectangle_27" data-name="Rectangle 27" width="300" height="300" transform="translate(211.358 549.205) rotate(21)" fill="rgba(136,207,224,0.3)"/>
            <rect id="Rectangle_26" data-name="Rectangle 26" width="300" height="300" transform="translate(460.699 620.625)" fill="rgba(136,207,224,0.3)"/>
      <rect id="Rectangle_27" data-name="Rectangle 27" width="300" height="300" transform="translate(560.358 520.205) rotate(21)" fill="rgba(136,207,224,0.3)"/>
      <rect id="Rectangle_30" data-name="Rectangle 30" width="108" height="106" transform="translate(459.562 538.219) rotate(56)" fill="rgba(136,207,224,0.3)"/>
      <rect id="Rectangle_34" data-name="Rectangle 34" width="126" height="145" transform="translate(70.237 40.976) rotate(21)" fill="rgba(136,207,224,0.3)"/>
      <rect id="Rectangle_39" data-name="Rectangle 39" width="92" height="94" transform="matrix(0.766, -0.643, 0.643, 0.766, 7.007, 59.136)" fill="rgba(136,207,224,0.3)"/>
      <rect id="Rectangle_40" data-name="Rectangle 40" width="139" height="122" transform="translate(3.614 213.1) rotate(-58)" fill="rgba(136,207,224,0.3)"/>
      <rect id="Rectangle_41" data-name="Rectangle 41" width="89" height="92" transform="translate(92.806 271.186) rotate(-84)" fill="rgba(136,207,224,0.3)"/>
      <rect id="Rectangle_42" data-name="Rectangle 42" width="89" height="92" transform="translate(19.017 312.504) rotate(-63)" fill="rgba(136,207,224,0.3)"/>
      <rect id="Rectangle_43" data-name="Rectangle 43" width="89" height="100" transform="matrix(-0.438, -0.899, 0.899, -0.438, 119.368, 382.899)" fill="rgba(136,207,224,0.3)"/>
      <rect id="Rectangle_44" data-name="Rectangle 44" width="114" height="116" transform="matrix(0.309, -0.951, 0.951, 0.309, 39.979, 431.622)" fill="rgba(136,207,224,0.3)"/>
      <rect id="Rectangle_45" data-name="Rectangle 45" width="180" height="150" transform="matrix(-0.052, -0.999, 0.999, -0.052, 45.559, 573.38)" fill="rgba(136,207,224,0.3)"/>
      <rect id="Rectangle_46" data-name="Rectangle 46" width="250" height="250" transform="translate(103.864 760.846) rotate(-122)" fill="rgba(136,207,224,0.3)"/>
    </g>
  </g>
</svg>
